<?xml version="1.0" encoding="UTF-8" standalone="no"?>
<!DOCTYPE svg PUBLIC "-//W3C//DTD SVG 1.1//EN"
 "http://www.w3.org/Graphics/SVG/1.1/DTD/svg11.dtd">
<!-- Generated by graphviz version 2.38.0 (20140413.2041)
 -->
<!-- Title: graphname Pages: 1 -->
<svg width="154pt" height="260pt"
 viewBox="0.00 0.00 153.66 260.00" xmlns="http://www.w3.org/2000/svg" xmlns:xlink="http://www.w3.org/1999/xlink">
<g id="graph0" class="graph" transform="scale(1 1) rotate(0) translate(4 256)">
<title>graphname</title>
<polygon fill="white" stroke="none" points="-4,4 -4,-256 149.665,-256 149.665,4 -4,4"/>
<!-- A_1 -->
<g id="node1" class="node"><title>A_1</title>
<ellipse fill="none" stroke="black" cx="73.6648" cy="-234" rx="27.8306" ry="18"/>
<text text-anchor="middle" x="73.6648" y="-229.8" font-family="Times,serif" font-size="14.00">A_1</text>
</g>
<!-- B_2 -->
<g id="node2" class="node"><title>B_2</title>
<ellipse fill="none" stroke="black" cx="73.6648" cy="-162" rx="27.268" ry="18"/>
<text text-anchor="middle" x="73.6648" y="-157.8" font-family="Times,serif" font-size="14.00">B_2</text>
</g>
<!-- A_1&#45;&gt;B_2 -->
<g id="edge1" class="edge"><title>A_1&#45;&gt;B_2</title>
<path fill="none" stroke="black" d="M73.6648,-207.64C73.6648,-202.063 73.6648,-196.132 73.6648,-190.476"/>
<ellipse fill="none" stroke="black" cx="73.6649" cy="-211.697" rx="4" ry="4"/>
<polygon fill="black" stroke="black" points="77.1649,-190.104 73.6648,-180.104 70.1649,-190.104 77.1649,-190.104"/>
</g>
<!-- C_3 -->
<g id="node3" class="node"><title>C_3</title>
<ellipse fill="none" stroke="black" cx="73.6648" cy="-90" rx="27.268" ry="18"/>
<text text-anchor="middle" x="73.6648" y="-85.8" font-family="Times,serif" font-size="14.00">C_3</text>
</g>
<!-- B_2&#45;&gt;C_3 -->
<g id="edge2" class="edge"><title>B_2&#45;&gt;C_3</title>
<path fill="none" stroke="black" d="M73.6648,-133.665C73.6648,-128.687 73.6648,-123.491 73.6648,-118.507"/>
<polygon fill="black" stroke="black" points="70.1649,-133.697 73.6648,-143.697 77.1649,-133.697 70.1649,-133.697"/>
<polygon fill="black" stroke="black" points="77.1649,-118.104 73.6648,-108.104 70.1649,-118.104 77.1649,-118.104"/>
</g>
<!-- D_4 -->
<g id="node4" class="node"><title>D_4</title>
<ellipse fill="none" stroke="black" cx="27.6648" cy="-18" rx="27.8306" ry="18"/>
<text text-anchor="middle" x="27.6648" y="-13.8" font-family="Times,serif" font-size="14.00">D_4</text>
</g>
<!-- B_2&#45;&gt;D_4 -->
<g id="edge3" class="edge"><title>B_2&#45;&gt;D_4</title>
<path fill="none" stroke="black" d="M60.4525,-145.887C52.4567,-135.846 42.8356,-121.98 37.6648,-108 30.3494,-88.2223 27.9784,-64.4215 27.3661,-46.4109"/>
<polygon fill="black" stroke="black" points="30.8635,-46.2272 27.1841,-36.2918 23.8646,-46.3532 30.8635,-46.2272"/>
</g>
<!-- E_5 -->
<g id="node5" class="node"><title>E_5</title>
<ellipse fill="none" stroke="black" cx="118.665" cy="-18" rx="27" ry="18"/>
<text text-anchor="middle" x="118.665" y="-13.8" font-family="Times,serif" font-size="14.00">E_5</text>
</g>
<!-- B_2&#45;&gt;E_5 -->
<g id="edge4" class="edge"><title>B_2&#45;&gt;E_5</title>
<path fill="none" stroke="black" d="M86.93,-145.906C94.947,-135.873 104.572,-122.008 109.665,-108 116.862,-88.2055 118.959,-64.4057 119.34,-46.3998"/>
<polygon fill="black" stroke="black" points="122.841,-46.3006 119.389,-36.2838 115.841,-46.2667 122.841,-46.3006"/>
</g>
<!-- C_3&#45;&gt;D_4 -->
<g id="edge5" class="edge"><title>C_3&#45;&gt;D_4</title>
<path fill="none" stroke="black" d="M63.2267,-73.1159C57.4629,-64.345 50.1809,-53.2637 43.7098,-43.4162"/>
<polygon fill="black" stroke="black" points="46.4784,-41.2562 38.0616,-34.8212 40.6285,-45.1004 46.4784,-41.2562"/>
</g>
<!-- C_3&#45;&gt;E_5 -->
<g id="edge6" class="edge"><title>C_3&#45;&gt;E_5</title>
<path fill="none" stroke="black" d="M89.4064,-64.5131C93.7612,-57.739 98.4883,-50.3856 102.847,-43.6048"/>
<polygon fill="black" stroke="black" points="86.3395,-62.8114 83.876,-73.1159 92.2277,-66.5968 86.3395,-62.8114"/>
<polygon fill="black" stroke="black" points="106.031,-45.1257 108.494,-34.8212 100.142,-41.3404 106.031,-45.1257"/>
</g>
</g>
</svg>

