<?xml version="1.0" encoding="UTF-8" standalone="no"?>
<!DOCTYPE svg PUBLIC "-//W3C//DTD SVG 1.1//EN"
 "http://www.w3.org/Graphics/SVG/1.1/DTD/svg11.dtd">
<!-- Generated by graphviz version 2.38.0 (20140413.2041)
 -->
<!-- Title: graphname Pages: 1 -->
<svg width="103pt" height="260pt"
 viewBox="0.00 0.00 102.99 260.00" xmlns="http://www.w3.org/2000/svg" xmlns:xlink="http://www.w3.org/1999/xlink">
<g id="graph0" class="graph" transform="scale(1 1) rotate(0) translate(4 256)">
<title>graphname</title>
<polygon fill="white" stroke="none" points="-4,4 -4,-256 98.9865,-256 98.9865,4 -4,4"/>
<!-- V1_1 -->
<g id="node1" class="node"><title>V1_1</title>
<ellipse fill="none" stroke="black" cx="62.4933" cy="-234" rx="32.4865" ry="18"/>
<text text-anchor="middle" x="62.4933" y="-229.8" font-family="Times,serif" font-size="14.00">V1_1</text>
</g>
<!-- V2_2 -->
<g id="node2" class="node"><title>V2_2</title>
<ellipse fill="none" stroke="black" cx="32.4933" cy="-162" rx="32.4865" ry="18"/>
<text text-anchor="middle" x="32.4933" y="-157.8" font-family="Times,serif" font-size="14.00">V2_2</text>
</g>
<!-- V1_1&#45;&gt;V2_2 -->
<g id="edge1" class="edge"><title>V1_1&#45;&gt;V2_2</title>
<path fill="none" stroke="black" d="M55.3837,-216.411C50.6708,-205.414 44.505,-191.027 39.7602,-179.956"/>
</g>
<!-- V4_4 -->
<g id="node4" class="node"><title>V4_4</title>
<ellipse fill="none" stroke="black" cx="62.4933" cy="-18" rx="32.4865" ry="18"/>
<text text-anchor="middle" x="62.4933" y="-13.8" font-family="Times,serif" font-size="14.00">V4_4</text>
</g>
<!-- V1_1&#45;&gt;V4_4 -->
<g id="edge2" class="edge"><title>V1_1&#45;&gt;V4_4</title>
<path fill="none" stroke="black" d="M66.9575,-215.953C69.4283,-205.63 72.2454,-192.153 73.4933,-180 78.3961,-132.251 78.3961,-119.749 73.4933,-72 72.2454,-59.8472 69.4283,-46.3698 66.9575,-36.0469"/>
</g>
<!-- V3_3 -->
<g id="node3" class="node"><title>V3_3</title>
<ellipse fill="none" stroke="black" cx="32.4933" cy="-90" rx="32.4865" ry="18"/>
<text text-anchor="middle" x="32.4933" y="-85.8" font-family="Times,serif" font-size="14.00">V3_3</text>
</g>
<!-- V2_2&#45;&gt;V3_3 -->
<g id="edge3" class="edge"><title>V2_2&#45;&gt;V3_3</title>
<path fill="none" stroke="black" d="M32.4933,-143.697C32.4933,-132.846 32.4933,-118.917 32.4933,-108.104"/>
</g>
<!-- V3_3&#45;&gt;V4_4 -->
<g id="edge4" class="edge"><title>V3_3&#45;&gt;V4_4</title>
<path fill="none" stroke="black" d="M39.6029,-72.411C44.3158,-61.4141 50.4815,-47.0274 55.2263,-35.9562"/>
</g>
</g>
</svg>

