<?xml version="1.0" encoding="UTF-8" standalone="no"?>
<!DOCTYPE svg PUBLIC "-//W3C//DTD SVG 1.1//EN"
 "http://www.w3.org/Graphics/SVG/1.1/DTD/svg11.dtd">
<!-- Generated by graphviz version 2.38.0 (20140413.2041)
 -->
<!-- Title: graphname Pages: 1 -->
<svg width="147pt" height="188pt"
 viewBox="0.00 0.00 146.53 188.00" xmlns="http://www.w3.org/2000/svg" xmlns:xlink="http://www.w3.org/1999/xlink">
<g id="graph0" class="graph" transform="scale(1 1) rotate(0) translate(4 184)">
<title>graphname</title>
<polygon fill="white" stroke="none" points="-4,4 -4,-184 142.527,-184 142.527,4 -4,4"/>
<!-- W -->
<g id="node1" class="node"><title>W</title>
<ellipse fill="none" stroke="black" cx="99" cy="-162" rx="27" ry="18"/>
<text text-anchor="middle" x="99" y="-157.8" font-family="Times,serif" font-size="14.00">W</text>
</g>
<!-- X -->
<g id="node2" class="node"><title>X</title>
<ellipse fill="none" stroke="black" cx="27" cy="-90" rx="27" ry="18"/>
<text text-anchor="middle" x="27" y="-85.8" font-family="Times,serif" font-size="14.00">X</text>
</g>
<!-- W&#45;&gt;X -->
<g id="edge1" class="edge"><title>W&#45;&gt;X</title>
<path fill="none" stroke="black" d="M78.5853,-141.152C68.8808,-131.717 57.304,-120.462 47.5786,-111.007"/>
<ellipse fill="none" stroke="black" cx="81.5617" cy="-144.046" rx="4.00002" ry="4.00002"/>
<ellipse fill="none" stroke="black" cx="44.6637" cy="-108.173" rx="4.00002" ry="4.00002"/>
</g>
<!-- Y -->
<g id="node3" class="node"><title>Y</title>
<ellipse fill="none" stroke="black" cx="99" cy="-90" rx="27" ry="18"/>
<text text-anchor="middle" x="99" y="-85.8" font-family="Times,serif" font-size="14.00">Y</text>
</g>
<!-- W&#45;&gt;Y -->
<g id="edge2" class="edge"><title>W&#45;&gt;Y</title>
<path fill="none" stroke="black" d="M99,-135.64C99,-129.348 99,-122.605 99,-116.316"/>
<ellipse fill="none" stroke="black" cx="99" cy="-139.697" rx="4" ry="4"/>
<ellipse fill="none" stroke="black" cx="99" cy="-112.104" rx="4" ry="4"/>
</g>
<!-- Z -->
<g id="node4" class="node"><title>Z</title>
<ellipse fill="none" stroke="black" cx="99" cy="-18" rx="27" ry="18"/>
<text text-anchor="middle" x="99" y="-13.8" font-family="Times,serif" font-size="14.00">Z</text>
</g>
<!-- W&#45;&gt;Z -->
<g id="edge3" class="edge"><title>W&#45;&gt;Z</title>
<path fill="none" stroke="black" d="M117.876,-139.543C124.667,-130.456 131.509,-119.353 135,-108 139.703,-92.7067 139.703,-87.2933 135,-72 131.714,-61.3149 125.46,-50.851 119.075,-42.0814"/>
<ellipse fill="none" stroke="black" cx="115.221" cy="-142.923" rx="4.00002" ry="4.00002"/>
<polygon fill="black" stroke="black" points="121.646,-39.6861 112.75,-33.9312 116.116,-43.9774 121.646,-39.6861"/>
</g>
<!-- X&#45;&gt;Z -->
<g id="edge4" class="edge"><title>X&#45;&gt;Z</title>
<path fill="none" stroke="black" d="M47.4147,-69.1524C56.6614,-60.1625 67.608,-49.52 77.0332,-40.3566"/>
<ellipse fill="none" stroke="black" cx="44.4383" cy="-72.0461" rx="4.00002" ry="4.00002"/>
<polygon fill="black" stroke="black" points="79.4741,-42.865 84.2043,-33.3847 74.5945,-37.8461 79.4741,-42.865"/>
</g>
<!-- Y&#45;&gt;Z -->
<g id="edge5" class="edge"><title>Y&#45;&gt;Z</title>
<path fill="none" stroke="black" d="M99,-63.6398C99,-58.0629 99,-52.1319 99,-46.4761"/>
<ellipse fill="none" stroke="black" cx="99" cy="-67.6966" rx="4" ry="4"/>
<polygon fill="black" stroke="black" points="102.5,-46.1043 99,-36.1043 95.5001,-46.1044 102.5,-46.1043"/>
</g>
</g>
</svg>

