<?xml version="1.0" encoding="UTF-8" standalone="no"?>
<!DOCTYPE svg PUBLIC "-//W3C//DTD SVG 1.1//EN"
 "http://www.w3.org/Graphics/SVG/1.1/DTD/svg11.dtd">
<!-- Generated by graphviz version 2.38.0 (20140413.2041)
 -->
<!-- Title: graphname Pages: 1 -->
<svg width="147pt" height="188pt"
 viewBox="0.00 0.00 146.93 188.00" xmlns="http://www.w3.org/2000/svg" xmlns:xlink="http://www.w3.org/1999/xlink">
<g id="graph0" class="graph" transform="scale(1 1) rotate(0) translate(4 184)">
<title>graphname</title>
<polygon fill="white" stroke="none" points="-4,4 -4,-184 142.934,-184 142.934,4 -4,4"/>
<!-- A -->
<g id="node1" class="node"><title>A</title>
<ellipse fill="none" stroke="black" cx="99" cy="-162" rx="27" ry="18"/>
<text text-anchor="middle" x="99" y="-157.8" font-family="Times,serif" font-size="14.00">A</text>
</g>
<!-- B -->
<g id="node2" class="node"><title>B</title>
<ellipse fill="none" stroke="black" cx="27" cy="-90" rx="27" ry="18"/>
<text text-anchor="middle" x="27" y="-85.8" font-family="Times,serif" font-size="14.00">B</text>
</g>
<!-- A&#45;&gt;B -->
<g id="edge1" class="edge"><title>A&#45;&gt;B</title>
<path fill="none" stroke="black" d="M76.956,-139.568C68.1335,-130.991 57.988,-121.127 49.1545,-112.539"/>
<polygon fill="black" stroke="black" points="74.82,-142.373 84.4297,-146.834 79.6995,-137.354 74.82,-142.373"/>
<polygon fill="black" stroke="black" points="51.4055,-109.846 41.7957,-105.385 46.5259,-114.865 51.4055,-109.846"/>
</g>
<!-- X -->
<g id="node3" class="node"><title>X</title>
<ellipse fill="none" stroke="black" cx="99" cy="-90" rx="27" ry="18"/>
<text text-anchor="middle" x="99" y="-85.8" font-family="Times,serif" font-size="14.00">X</text>
</g>
<!-- A&#45;&gt;X -->
<g id="edge2" class="edge"><title>A&#45;&gt;X</title>
<path fill="none" stroke="black" d="M99,-133.665C99,-128.014 99,-122.082 99,-116.5"/>
<polygon fill="black" stroke="black" points="95.5001,-133.697 99,-143.697 102.5,-133.697 95.5001,-133.697"/>
<ellipse fill="none" stroke="black" cx="99" cy="-112.104" rx="4" ry="4"/>
</g>
<!-- Y -->
<g id="node4" class="node"><title>Y</title>
<ellipse fill="none" stroke="black" cx="90" cy="-18" rx="27" ry="18"/>
<text text-anchor="middle" x="90" y="-13.8" font-family="Times,serif" font-size="14.00">Y</text>
</g>
<!-- A&#45;&gt;Y -->
<g id="edge3" class="edge"><title>A&#45;&gt;Y</title>
<path fill="none" stroke="black" d="M112.75,-146.069C120.961,-136.1 130.619,-122.247 135,-108 139.703,-92.7067 140.516,-87.0191 135,-72 130.558,-59.9063 121.998,-48.684 113.526,-39.7087"/>
<polygon fill="black" stroke="black" points="115.768,-37.0026 106.208,-32.4344 110.833,-41.9669 115.768,-37.0026"/>
</g>
<!-- B&#45;&gt;Y -->
<g id="edge4" class="edge"><title>B&#45;&gt;Y</title>
<path fill="none" stroke="black" d="M47.3282,-66.4131C54.5361,-58.4044 62.6405,-49.3995 69.8347,-41.4059"/>
<polygon fill="black" stroke="black" points="44.4488,-64.3804 40.3607,-74.1548 49.6519,-69.0632 44.4488,-64.3804"/>
<polygon fill="black" stroke="black" points="72.5704,-43.5982 76.6586,-33.8238 67.3674,-38.9154 72.5704,-43.5982"/>
</g>
</g>
</svg>

