<?xml version="1.0" encoding="UTF-8" standalone="no"?>
<!DOCTYPE svg PUBLIC "-//W3C//DTD SVG 1.1//EN"
 "http://www.w3.org/Graphics/SVG/1.1/DTD/svg11.dtd">
<!-- Generated by graphviz version 2.38.0 (20140413.2041)
 -->
<!-- Title: graphname Pages: 1 -->
<svg width="62pt" height="260pt"
 viewBox="0.00 0.00 62.00 260.00" xmlns="http://www.w3.org/2000/svg" xmlns:xlink="http://www.w3.org/1999/xlink">
<g id="graph0" class="graph" transform="scale(1 1) rotate(0) translate(4 256)">
<title>graphname</title>
<polygon fill="white" stroke="none" points="-4,4 -4,-256 58,-256 58,4 -4,4"/>
<!-- A -->
<g id="node1" class="node"><title>A</title>
<ellipse fill="none" stroke="black" cx="27" cy="-234" rx="27" ry="18"/>
<text text-anchor="middle" x="27" y="-229.8" font-family="Times,serif" font-size="14.00">A</text>
</g>
<!-- B -->
<g id="node2" class="node"><title>B</title>
<ellipse fill="none" stroke="black" cx="27" cy="-162" rx="27" ry="18"/>
<text text-anchor="middle" x="27" y="-157.8" font-family="Times,serif" font-size="14.00">B</text>
</g>
<!-- A&#45;&gt;B -->
<g id="edge1" class="edge"><title>A&#45;&gt;B</title>
<path fill="none" stroke="black" d="M27,-207.64C27,-202.063 27,-196.132 27,-190.476"/>
<ellipse fill="none" stroke="black" cx="27" cy="-211.697" rx="4" ry="4"/>
<polygon fill="black" stroke="black" points="30.5001,-190.104 27,-180.104 23.5001,-190.104 30.5001,-190.104"/>
</g>
<!-- C -->
<g id="node3" class="node"><title>C</title>
<ellipse fill="none" stroke="black" cx="27" cy="-90" rx="27" ry="18"/>
<text text-anchor="middle" x="27" y="-85.8" font-family="Times,serif" font-size="14.00">C</text>
</g>
<!-- B&#45;&gt;C -->
<g id="edge2" class="edge"><title>B&#45;&gt;C</title>
<path fill="none" stroke="black" d="M27,-133.665C27,-128.687 27,-123.491 27,-118.507"/>
<polygon fill="black" stroke="black" points="23.5001,-133.697 27,-143.697 30.5001,-133.697 23.5001,-133.697"/>
<polygon fill="black" stroke="black" points="30.5001,-118.104 27,-108.104 23.5001,-118.104 30.5001,-118.104"/>
</g>
<!-- D -->
<g id="node4" class="node"><title>D</title>
<ellipse fill="none" stroke="black" cx="27" cy="-18" rx="27" ry="18"/>
<text text-anchor="middle" x="27" y="-13.8" font-family="Times,serif" font-size="14.00">D</text>
</g>
<!-- C&#45;&gt;D -->
<g id="edge3" class="edge"><title>C&#45;&gt;D</title>
<path fill="none" stroke="black" d="M27,-61.6651C27,-56.0139 27,-50.0823 27,-44.4995"/>
<polygon fill="black" stroke="black" points="23.5001,-61.6966 27,-71.6966 30.5001,-61.6967 23.5001,-61.6966"/>
<ellipse fill="none" stroke="black" cx="27" cy="-40.1043" rx="4" ry="4"/>
</g>
</g>
</svg>

