<?xml version="1.0" encoding="UTF-8" standalone="no"?>
<!DOCTYPE svg PUBLIC "-//W3C//DTD SVG 1.1//EN"
 "http://www.w3.org/Graphics/SVG/1.1/DTD/svg11.dtd">
<!-- Generated by graphviz version 2.38.0 (20140413.2041)
 -->
<!-- Title: graphname Pages: 1 -->
<svg width="89pt" height="260pt"
 viewBox="0.00 0.00 89.00 260.00" xmlns="http://www.w3.org/2000/svg" xmlns:xlink="http://www.w3.org/1999/xlink">
<g id="graph0" class="graph" transform="scale(1 1) rotate(0) translate(4 256)">
<title>graphname</title>
<polygon fill="white" stroke="none" points="-4,4 -4,-256 85,-256 85,4 -4,4"/>
<!-- A -->
<g id="node1" class="node"><title>A</title>
<ellipse fill="none" stroke="black" cx="54" cy="-234" rx="27" ry="18"/>
<text text-anchor="middle" x="54" y="-229.8" font-family="Times,serif" font-size="14.00">A</text>
</g>
<!-- B -->
<g id="node2" class="node"><title>B</title>
<ellipse fill="none" stroke="black" cx="27" cy="-162" rx="27" ry="18"/>
<text text-anchor="middle" x="27" y="-157.8" font-family="Times,serif" font-size="14.00">B</text>
</g>
<!-- A&#45;&gt;B -->
<g id="edge1" class="edge"><title>A&#45;&gt;B</title>
<path fill="none" stroke="black" d="M43.993,-207.056C41.7566,-201.258 39.3828,-195.104 37.141,-189.291"/>
<polygon fill="black" stroke="black" points="40.7371,-208.341 47.6014,-216.411 47.2681,-205.821 40.7371,-208.341"/>
<polygon fill="black" stroke="black" points="40.4045,-188.027 33.5403,-179.956 33.8735,-190.546 40.4045,-188.027"/>
</g>
<!-- D -->
<g id="node4" class="node"><title>D</title>
<ellipse fill="none" stroke="black" cx="54" cy="-18" rx="27" ry="18"/>
<text text-anchor="middle" x="54" y="-13.8" font-family="Times,serif" font-size="14.00">D</text>
</g>
<!-- A&#45;&gt;D -->
<g id="edge2" class="edge"><title>A&#45;&gt;D</title>
<path fill="none" stroke="black" d="M59.4884,-205.988C60.9311,-197.688 62.2834,-188.501 63,-180 67.0322,-132.17 67.0322,-119.83 63,-72 62.2834,-63.4991 60.9311,-54.3119 59.4884,-46.0122"/>
<polygon fill="black" stroke="black" points="56.0309,-205.438 57.6538,-215.908 62.9142,-206.711 56.0309,-205.438"/>
<polygon fill="black" stroke="black" points="62.9142,-45.2892 57.6538,-36.0925 56.0309,-46.5623 62.9142,-45.2892"/>
</g>
<!-- C -->
<g id="node3" class="node"><title>C</title>
<ellipse fill="none" stroke="black" cx="27" cy="-90" rx="27" ry="18"/>
<text text-anchor="middle" x="27" y="-85.8" font-family="Times,serif" font-size="14.00">C</text>
</g>
<!-- B&#45;&gt;C -->
<g id="edge3" class="edge"><title>B&#45;&gt;C</title>
<path fill="none" stroke="black" d="M27,-133.665C27,-128.687 27,-123.491 27,-118.507"/>
<polygon fill="black" stroke="black" points="23.5001,-133.697 27,-143.697 30.5001,-133.697 23.5001,-133.697"/>
<polygon fill="black" stroke="black" points="30.5001,-118.104 27,-108.104 23.5001,-118.104 30.5001,-118.104"/>
</g>
<!-- C&#45;&gt;D -->
<g id="edge4" class="edge"><title>C&#45;&gt;D</title>
<path fill="none" stroke="black" d="M37.007,-63.056C39.2434,-57.2578 41.6172,-51.1035 43.859,-45.2914"/>
<polygon fill="black" stroke="black" points="33.7319,-61.8214 33.3986,-72.411 40.2629,-64.3405 33.7319,-61.8214"/>
<polygon fill="black" stroke="black" points="47.1265,-46.5458 47.4597,-35.9562 40.5955,-44.0267 47.1265,-46.5458"/>
</g>
</g>
</svg>

