<?xml version="1.0" encoding="UTF-8" standalone="no"?>
<!DOCTYPE svg PUBLIC "-//W3C//DTD SVG 1.1//EN"
 "http://www.w3.org/Graphics/SVG/1.1/DTD/svg11.dtd">
<!-- Generated by graphviz version 2.38.0 (20140413.2041)
 -->
<!-- Title: graphname Pages: 1 -->
<svg width="136pt" height="116pt"
 viewBox="0.00 0.00 136.33 116.00" xmlns="http://www.w3.org/2000/svg" xmlns:xlink="http://www.w3.org/1999/xlink">
<g id="graph0" class="graph" transform="scale(1 1) rotate(0) translate(4 112)">
<title>graphname</title>
<polygon fill="white" stroke="none" points="-4,4 -4,-112 132.33,-112 132.33,4 -4,4"/>
<!-- X_1 -->
<g id="node1" class="node"><title>X_1</title>
<ellipse fill="none" stroke="black" cx="27.6648" cy="-90" rx="27.8306" ry="18"/>
<text text-anchor="middle" x="27.6648" y="-85.8" font-family="Times,serif" font-size="14.00">X_1</text>
</g>
<!-- Z_3 -->
<g id="node3" class="node"><title>Z_3</title>
<ellipse fill="none" stroke="black" cx="63.6648" cy="-18" rx="27" ry="18"/>
<text text-anchor="middle" x="63.6648" y="-13.8" font-family="Times,serif" font-size="14.00">Z_3</text>
</g>
<!-- X_1&#45;&gt;Z_3 -->
<g id="edge1" class="edge"><title>X_1&#45;&gt;Z_3</title>
<path fill="none" stroke="black" d="M39.7626,-65.4765C43.6075,-58.0003 47.8564,-49.7386 51.6924,-42.2797"/>
<ellipse fill="none" stroke="black" cx="37.8438" cy="-69.2075" rx="4.00002" ry="4.00002"/>
<ellipse fill="none" stroke="black" cx="53.5311" cy="-38.7045" rx="4.00002" ry="4.00002"/>
</g>
<!-- Y_2 -->
<g id="node2" class="node"><title>Y_2</title>
<ellipse fill="none" stroke="black" cx="100.665" cy="-90" rx="27.8306" ry="18"/>
<text text-anchor="middle" x="100.665" y="-85.8" font-family="Times,serif" font-size="14.00">Y_2</text>
</g>
<!-- Y_2&#45;&gt;Z_3 -->
<g id="edge2" class="edge"><title>Y_2&#45;&gt;Z_3</title>
<path fill="none" stroke="black" d="M88.2309,-65.4765C84.2793,-58.0003 79.9123,-49.7386 75.9698,-42.2797"/>
<ellipse fill="none" stroke="black" cx="90.214" cy="-69.2283" rx="4.00002" ry="4.00002"/>
<ellipse fill="none" stroke="black" cx="74.0691" cy="-38.6837" rx="4.00002" ry="4.00002"/>
</g>
</g>
</svg>

